<svg width="296" height="296" viewBox="0 0 296 296" fill="none" xmlns="http://www.w3.org/2000/svg">
<circle cx="148" cy="148" r="142" fill="#28FF64"/>
<path fill-rule="evenodd" clip-rule="evenodd" d="M163.861 264.155C228.26 264.155 280.466 211.949 280.466 147.55C280.466 83.1516 228.26 30.9459 163.861 30.9459C99.4623 30.9459 47.2567 83.1516 47.2567 147.55C47.2567 211.949 99.4623 264.155 163.861 264.155ZM164.304 249.855C221.002 249.855 266.966 203.892 266.966 147.193C266.966 90.4941 221.002 44.5306 164.304 44.5306C107.605 44.5306 61.6414 90.4941 61.6414 147.193C61.6414 203.892 107.605 249.855 164.304 249.855Z" fill="#0F092D"/>
<path fill-rule="evenodd" clip-rule="evenodd" d="M175.812 227.625C219.891 227.625 255.625 191.891 255.625 147.812C255.625 103.733 219.891 68 175.812 68C131.733 68 96 103.733 96 147.812C96 191.891 131.733 227.625 175.812 227.625ZM175.86 213.72C212.233 213.72 241.72 184.233 241.72 147.86C241.72 111.487 212.233 82 175.86 82C139.487 82 110 111.487 110 147.86C110 184.233 139.487 213.72 175.86 213.72Z" fill="#0F092D"/>
<path fill-rule="evenodd" clip-rule="evenodd" d="M186.718 193.108C211.631 193.108 231.826 172.913 231.826 148C231.826 123.087 211.631 102.892 186.718 102.892C161.805 102.892 141.61 123.087 141.61 148C141.61 172.913 161.805 193.108 186.718 193.108ZM187.48 179.96C204.866 179.96 218.96 165.866 218.96 148.48C218.96 131.094 204.866 117 187.48 117C170.094 117 156 131.094 156 148.48C156 165.866 170.094 179.96 187.48 179.96Z" fill="#0F092D"/>
</svg>
